<svg xmlns="http://www.w3.org/2000/svg" width="1129" height="663" viewBox="0 0 1129 663" class="featureSvg_GfXr" role="img"><title>Focus on What Matters</title><circle cx="321" cy="321" r="321" fill="#f2f2f2"></circle><ellipse cx="559" cy="635.5" rx="514" ry="27.5" fill="#3f3d56"></ellipse><ellipse cx="558" cy="627" rx="460" ry="22" opacity="0.2"></ellipse><path fill="#3f3d56" d="M131 152.5h840v50H131z"></path><path d="M131 608.83a21.67 21.67 0 0 0 21.67 21.67h796.66A21.67 21.67 0 0 0 971 608.83V177.5H131ZM949.33 117.5H152.67A21.67 21.67 0 0 0 131 139.17v38.33h840v-38.33a21.67 21.67 0 0 0-21.67-21.67Z" fill="#3f3d56"></path><path d="M949.33 117.5H152.67A21.67 21.67 0 0 0 131 139.17v38.33h840v-38.33a21.67 21.67 0 0 0-21.67-21.67Z" opacity="0.2"></path><circle cx="181" cy="147.5" r="13" fill="#3f3d56"></circle><circle cx="217" cy="147.5" r="13" fill="#3f3d56"></circle><circle cx="253" cy="147.5" r="13" fill="#3f3d56"></circle><rect x="168" y="213.5" width="337" height="386" rx="5.335" fill="#606060"></rect><rect x="603" y="272.5" width="284" height="22" rx="5.476" fill="#2e8555"></rect><rect x="537" y="352.5" width="416" height="15" rx="5.476" fill="#2e8555"></rect><rect x="537" y="396.5" width="416" height="15" rx="5.476" fill="#2e8555"></rect><rect x="537" y="440.5" width="416" height="15" rx="5.476" fill="#2e8555"></rect><rect x="537" y="484.5" width="416" height="15" rx="5.476" fill="#2e8555"></rect><rect x="865" y="552.5" width="88" height="26" rx="7.028" fill="#3ecc5f"></rect><path d="M1053.103 506.116a30.114 30.114 0 0 0 3.983-15.266c0-13.797-8.544-24.98-19.083-24.98s-19.082 11.183-19.082 24.98a30.114 30.114 0 0 0 3.983 15.266 31.248 31.248 0 0 0 0 30.532 31.248 31.248 0 0 0 0 30.532 31.248 31.248 0 0 0 0 30.532 30.114 30.114 0 0 0-3.983 15.266c0 13.797 8.543 24.981 19.082 24.981s19.083-11.184 19.083-24.98a30.114 30.114 0 0 0-3.983-15.267 31.248 31.248 0 0 0 0-30.532 31.248 31.248 0 0 0 0-30.532 31.248 31.248 0 0 0 0-30.532Z" fill="#3f3d56"></path><ellipse cx="1038.003" cy="460.318" rx="19.083" ry="24.981" fill="#3f3d56"></ellipse><ellipse cx="1038.003" cy="429.786" rx="19.083" ry="24.981" fill="#3f3d56"></ellipse><path d="M1109.439 220.845a91.61 91.61 0 0 0 7.106-10.461l-50.14-8.235 54.228.403a91.566 91.566 0 0 0 1.746-72.426l-72.755 37.742 67.097-49.321A91.413 91.413 0 1 0 965.75 220.845a91.458 91.458 0 0 0-10.425 16.67l65.087 33.814-69.4-23.292a91.46 91.46 0 0 0 14.738 85.837 91.406 91.406 0 1 0 143.689 0 91.418 91.418 0 0 0 0-113.03Z" fill="#3ecc5f" fill-rule="evenodd"></path><path d="M946.188 277.36a91.013 91.013 0 0 0 19.562 56.514 91.406 91.406 0 1 0 143.689 0c12.25-15.553-163.25-66.774-163.25-56.515Z" opacity="0.1"></path></svg>